<svg xmlns="http://www.w3.org/2000/svg" version="1.1" xmlns:xlink="http://www.w3.org/1999/xlink" xmlns:svgjs="http://svgjs.dev/svgjs" width="1000" height="1000" viewBox="0 0 1000 1000"><g transform="matrix(1,0,0,1,0.4048582995951051,0.4048582995951051)"><svg viewBox="0 0 247 247" data-background-color="#f9f9f9" preserveAspectRatio="xMidYMid meet" height="1000" width="1000" xmlns="http://www.w3.org/2000/svg" xmlns:xlink="http://www.w3.org/1999/xlink"><g id="tight-bounds" transform="matrix(1,0,0,1,-0.09999999999999432,-0.09999999999999432)"><svg viewBox="0 0 247.2 247.2" height="247.2" width="247.2"><g><svg viewBox="0 0 247.2 247.2" height="247.2" width="247.2"><g><svg viewBox="0 0 247.2 247.2" height="247.2" width="247.2"><g><svg viewBox="0 0 247.2 247.2" height="247.2" width="247.2"><g id="textblocktransform"><svg viewBox="0 0 247.2 247.2" height="247.2" width="247.2" id="textblock"><g><svg viewBox="0 0 247.2 247.2" height="247.2" width="247.2"><g transform="matrix(1,0,0,1,79.90080092267135,79.90080092267135)"><svg viewBox="0 0 87.39839815465727 87.39839815465727" height="87.39839815465727" width="87.39839815465727"><g><circle r="44" cx="43.699199077328636" cy="43.699199077328636" fill="#0f181f" data-fill-palette-color="accent"></circle></g></svg></g><g><path d="M24.779 79.388l5.123 1.82c0.372 1.684 0.096 3.828-0.828 6.432v0c-1.189 3.346-3.265 5.761-6.229 7.245-2.955 1.479-6.15 1.609-9.585 0.389v0c-3.485-1.238-5.934-3.337-7.348-6.297-1.42-2.962-1.508-6.196-0.263-9.7v0c0.916-2.579 2.046-4.405 3.391-5.479v0l5.02 1.783c-1.641 1.33-2.831 3.036-3.571 5.118v0c-0.65 1.831-0.557 3.592 0.28 5.285 0.835 1.699 2.328 2.931 4.479 3.694v0c2.101 0.746 3.989 0.716 5.664-0.092 1.673-0.801 2.859-2.186 3.559-4.155v0c0.755-2.126 0.858-4.141 0.308-6.043z" fill="#0f181f" data-fill-palette-color="primary"></path><path d="M21.28 59.663v0l-1.468 2.306 5.769 3.673 1.414-2.221c1.287-2.021 0.937-3.665-1.051-4.931v0c-0.867-0.552-1.715-0.724-2.544-0.516-0.833 0.214-1.539 0.777-2.12 1.689zM29.373 68.057l7.104 4.523-2.974 4.67-20.466-13.03 4.502-7.07c1.456-2.286 3.234-3.737 5.336-4.354 2.098-0.611 4.119-0.298 6.061 0.94v0c2.911 1.854 4.132 4.38 3.662 7.578v0l11.166-0.179-3.555 5.583-9.927-0.089z" fill="#0f181f" data-fill-palette-color="primary"></path><path d="M54.073 44.423l3.165 3.093-10.539 10.786-17.352-16.957 10.434-10.678 3.165 3.094-6.536 6.688 3.939 3.849 5.836-5.972 3.144 3.072-5.836 5.973 3.939 3.849z" fill="#0f181f" data-fill-palette-color="primary"></path><path d="M62.386 31.926v0l0.243 0.863 4.944-3.086-0.669-0.598c-1.833-1.626-3.378-3.022-4.634-4.19-1.25-1.171-2.045-1.934-2.384-2.288v0l-0.501-0.538c0.536 1.224 1.536 4.503 3.001 9.837zM63.864 37.282l1.373 4.998-4.909 3.065-5.985-24.865 5.929-3.701 19.719 16.291-5.037 3.144-3.887-3.428z" fill="#0f181f" data-fill-palette-color="primary"></path><path d="M91.111 3.479l1.467 4.218-5.58 1.94 6.5 18.698-5.268 1.832-6.5-18.699-5.609 1.95-1.466-4.218z" fill="#0f181f" data-fill-palette-color="primary"></path><path d="M124.615 11.283v0c0.388 3.705-0.368 6.807-2.267 9.308-1.899 2.501-4.625 3.937-8.177 4.31v0c-3.578 0.375-6.548-0.459-8.91-2.501-2.362-2.048-3.738-4.935-4.128-8.659v0c-0.387-3.698 0.369-6.797 2.268-9.299 1.893-2.5 4.618-3.937 8.177-4.309v0c3.578-0.375 6.548 0.459 8.91 2.501 2.362 2.048 3.738 4.931 4.127 8.649zM108.048 7.57c-0.91 1.438-1.246 3.288-1.01 5.553 0.238 2.271 0.95 4.012 2.138 5.223 1.188 1.218 2.678 1.733 4.471 1.545 1.786-0.187 3.137-1 4.053-2.438 0.911-1.431 1.247-3.282 1.01-5.552-0.237-2.264-0.949-4.005-2.138-5.223-1.194-1.211-2.684-1.723-4.469-1.536-1.793 0.188-3.144 0.997-4.055 2.428z" fill="#0f181f" data-fill-palette-color="primary"></path><path d="M141.283 5.613v0l-2.707-0.38-0.952 6.772 2.608 0.367c2.373 0.334 3.724-0.666 4.052-3v0c0.143-1.018-0.052-1.861-0.585-2.53-0.54-0.669-1.345-1.079-2.416-1.229zM136.999 16.457l-1.172 8.339-5.484-0.77 3.377-24.026 8.299 1.166c2.684 0.377 4.742 1.394 6.174 3.052 1.425 1.656 1.978 3.625 1.658 5.906v0c-0.48 3.418-2.273 5.576-5.379 6.473v0l4.79 10.087-6.554-0.921-4.034-9.07z" fill="#0f181f" data-fill-palette-color="primary"></path><path d="M180.96 13.278l-16.576 19.51-5.692-2.27 1.499-25.522 5.553 2.214-0.88 10.074c-0.151 1.801-0.341 3.515-0.573 5.14-0.237 1.623-0.434 2.791-0.589 3.505v0l-0.244 1.099c1.282-2.169 3.189-4.844 5.722-8.024v0l6.293-7.914z" fill="#0f181f" data-fill-palette-color="primary"></path><path d="M190.395 42.688l-2.448 3.688-12.564-8.339 13.417-20.215 12.439 8.256-2.447 3.688-7.793-5.172-3.045 4.588 6.958 4.618-2.431 3.663-6.958-4.618-3.045 4.588z" fill="#0f181f" data-fill-palette-color="primary"></path><path d="M211.815 42.508v0l-1.892-1.973-4.937 4.732 1.822 1.901c1.658 1.73 3.338 1.78 5.039 0.149v0c0.742-0.711 1.111-1.494 1.105-2.349-0.01-0.859-0.389-1.68-1.137-2.46zM201.74 48.378l-6.079 5.827-3.832-3.998 17.516-16.788 5.799 6.051c1.875 1.957 2.863 4.029 2.963 6.217 0.095 2.183-0.688 4.072-2.351 5.665v0c-2.492 2.388-5.235 2.974-8.231 1.759v0l-2.476 10.889-4.58-4.778 2.442-9.623z" fill="#0f181f" data-fill-palette-color="primary"></path><path d="M221.005 76.619v0c-1.863 1.15-3.794 1.397-5.792 0.74-1.998-0.657-3.697-2.119-5.096-4.385v0c-1.501-2.431-2.294-4.675-2.38-6.733v0l4.745-2.93c-0.199 2.688 0.35 5.084 1.647 7.185v0c0.442 0.716 0.999 1.192 1.671 1.429 0.662 0.234 1.3 0.162 1.914-0.217v0c0.204-0.126 0.38-0.274 0.526-0.443 0.149-0.178 0.252-0.399 0.31-0.662 0.063-0.266 0.104-0.511 0.122-0.734 0.019-0.224 0.014-0.53-0.015-0.921-0.029-0.39-0.056-0.719-0.079-0.986-0.024-0.268-0.068-0.656-0.132-1.166-0.064-0.51-0.12-0.918-0.168-1.226v0c-0.207-1.708-0.111-3.242 0.288-4.603 0.399-1.361 1.346-2.502 2.84-3.424v0c1.778-1.098 3.615-1.33 5.513-0.697 1.897 0.633 3.559 2.105 4.986 4.417v0c1.273 2.062 2.022 4.051 2.249 5.967v0l-4.414 2.725c-0.061-2.246-0.64-4.257-1.737-6.035v0c-0.491-0.795-1.028-1.303-1.611-1.524-0.589-0.217-1.139-0.168-1.651 0.148-0.506 0.312-0.802 0.848-0.889 1.609-0.082 0.757-0.032 1.785 0.15 3.084v0c0.105 0.806 0.18 1.486 0.224 2.039 0.044 0.554 0.045 1.216 0.003 1.987-0.047 0.775-0.18 1.449-0.399 2.023-0.224 0.578-0.574 1.167-1.051 1.767-0.473 0.606-1.065 1.128-1.774 1.566z" fill="#0f181f" data-fill-palette-color="primary"></path><path d="M226.244 97.161l-4.134 1.579-5.381-14.087 22.665-8.657 5.327 13.946-4.135 1.58-3.337-8.737-5.144 1.965 2.979 7.801-4.106 1.569-2.98-7.801-5.144 1.965z" fill="#0f181f" data-fill-palette-color="primary"></path><path d="M19.868 175.511l-5.124 1.819c-1.351-1.072-2.489-2.909-3.414-5.513v0c-1.189-3.346-1.101-6.53 0.263-9.551 1.36-3.012 3.757-5.128 7.192-6.348v0c3.485-1.238 6.71-1.154 9.674 0.252 2.971 1.403 5.078 3.856 6.323 7.36v0c0.916 2.579 1.191 4.709 0.824 6.391v0l-5.019 1.783c0.435-2.067 0.282-4.142-0.458-6.224v0c-0.65-1.831-1.834-3.139-3.551-3.924-1.719-0.792-3.655-0.806-5.806-0.042v0c-2.101 0.746-3.547 1.961-4.337 3.644-0.793 1.677-0.84 3.5-0.14 5.469v0c0.755 2.126 1.946 3.754 3.573 4.884z" fill="#0f181f" data-fill-palette-color="primary"></path><path d="M39.216 182.071v0l-1.468-2.306-5.769 3.673 1.415 2.222c1.287 2.021 2.925 2.399 4.912 1.134v0c0.867-0.552 1.382-1.248 1.544-2.087 0.159-0.845-0.053-1.723-0.634-2.636zM28.187 185.853l-7.104 4.523-2.974-4.671 20.466-13.031 4.501 7.07c1.456 2.286 2.018 4.512 1.687 6.677-0.334 2.16-1.473 3.858-3.415 5.095v0c-2.911 1.854-5.717 1.891-8.416 0.112v0l-4.561 10.193-3.555-5.583 4.28-8.957z" fill="#0f181f" data-fill-palette-color="primary"></path><path d="M47.352 215.299l-3.165 3.093-10.54-10.785 17.353-16.957 10.434 10.678-3.165 3.093-6.537-6.689-3.938 3.849 5.836 5.973-3.144 3.072-5.836-5.972-3.939 3.849z" fill="#0f181f" data-fill-palette-color="primary"></path><path d="M63.624 219.245v0l-0.669 0.598 4.944 3.086 0.244-0.863c0.655-2.361 1.232-4.362 1.729-6.003 0.503-1.638 0.839-2.687 1.008-3.148v0l0.263-0.685c-0.864 1.019-3.371 3.357-7.519 7.015zM59.461 222.926l-3.887 3.428-4.91-3.064 19.711-16.297 5.929 3.701-5.976 24.871-5.037-3.145 1.373-4.997z" fill="#0f181f" data-fill-palette-color="primary"></path><path d="M101.052 221.079l-1.466 4.219-5.58-1.94-6.5 18.698-5.268-1.831 6.5-18.699-5.609-1.949 1.467-4.219z" fill="#0f181f" data-fill-palette-color="primary"></path><path d="M125.257 235.742v0c-0.388 3.705-1.77 6.584-4.146 8.637-2.376 2.053-5.34 2.894-8.892 2.522v0c-3.578-0.375-6.312-1.805-8.199-4.291-1.887-2.493-2.635-5.602-2.246-9.326v0c0.387-3.698 1.769-6.574 4.145-8.627 2.37-2.054 5.334-2.895 8.892-2.523v0c3.578 0.375 6.312 1.805 8.199 4.292 1.887 2.493 2.636 5.598 2.247 9.316zM109.817 228.679c-1.188 1.218-1.9 2.959-2.137 5.223-0.238 2.271 0.099 4.121 1.009 5.552 0.91 1.438 2.261 2.25 4.054 2.438 1.786 0.187 3.276-0.328 4.471-1.545 1.187-1.211 1.9-2.952 2.138-5.223 0.237-2.264-0.1-4.115-1.01-5.553-0.917-1.432-2.269-2.241-4.055-2.428-1.793-0.188-3.282 0.324-4.47 1.536z" fill="#0f181f" data-fill-palette-color="primary"></path><path d="M138.324 226.485v0l-2.707 0.381 0.952 6.772 2.607-0.366c2.373-0.334 3.396-1.667 3.068-4.001v0c-0.143-1.018-0.563-1.775-1.259-2.27-0.703-0.494-1.59-0.666-2.661-0.516zM137.194 238.09l1.172 8.339-5.483 0.771-3.377-24.026 8.3-1.166c2.684-0.377 4.942 0.033 6.776 1.232 1.827 1.199 2.901 2.939 3.221 5.22v0c0.48 3.418-0.648 5.986-3.387 7.705v0l7.386 8.376-6.554 0.921-6.378-7.607z" fill="#0f181f" data-fill-palette-color="primary"></path><path d="M169.747 211.755l1.396 25.563-5.692 2.269-16.473-19.55 5.552-2.214 6.293 7.914c1.13 1.411 2.171 2.785 3.121 4.124 0.944 1.341 1.606 2.324 1.985 2.949v0l0.579 0.966c-0.563-2.456-1.019-5.709-1.369-9.759v0l-0.88-10.074z" fill="#0f181f" data-fill-palette-color="primary"></path><path d="M195.591 218.296l2.448 3.687-12.564 8.339-13.417-20.214 12.439-8.256 2.447 3.687-7.792 5.172 3.046 4.589 6.958-4.618 2.431 3.662-6.958 4.618 3.045 4.589z" fill="#0f181f" data-fill-palette-color="primary"></path><path d="M196.464 195.933v0l-1.891 1.974 4.937 4.732 1.822-1.901c1.658-1.73 1.637-3.41-0.064-5.041v0c-0.742-0.711-1.54-1.046-2.394-1.004-0.858 0.047-1.662 0.46-2.41 1.24zM202.756 205.75l6.079 5.827-3.831 3.998-17.516-16.788 5.8-6.051c1.875-1.957 3.904-3.031 6.085-3.224 2.177-0.188 4.097 0.515 5.76 2.109v0c2.492 2.388 3.194 5.104 2.106 8.149v0l10.985 2.012-4.58 4.778-9.717-2.032z" fill="#0f181f" data-fill-palette-color="primary"></path><path d="M224.519 178.705v0c1.863 1.15 2.949 2.766 3.256 4.847 0.308 2.081-0.238 4.254-1.637 6.52v0c-1.501 2.431-3.152 4.146-4.953 5.145v0l-4.745-2.93c2.493-1.026 4.388-2.59 5.685-4.692v0c0.442-0.716 0.618-1.427 0.529-2.133-0.087-0.697-0.438-1.235-1.051-1.614v0c-0.204-0.126-0.415-0.217-0.632-0.273-0.226-0.053-0.469-0.047-0.73 0.02-0.266 0.063-0.504 0.136-0.712 0.219-0.208 0.083-0.48 0.225-0.816 0.426-0.336 0.201-0.618 0.372-0.847 0.513-0.228 0.141-0.556 0.355-0.983 0.64-0.427 0.285-0.767 0.519-1.021 0.7v0c-1.434 0.95-2.849 1.552-4.244 1.805-1.395 0.252-2.84-0.082-4.334-1.005v0c-1.778-1.098-2.809-2.636-3.093-4.616-0.284-1.98 0.288-4.125 1.715-6.438v0c1.273-2.062 2.715-3.623 4.328-4.683v0l4.413 2.725c-1.98 1.06-3.519 2.479-4.617 4.257v0c-0.491 0.795-0.704 1.503-0.64 2.123 0.07 0.624 0.36 1.093 0.871 1.409 0.506 0.312 1.118 0.337 1.837 0.075 0.713-0.266 1.61-0.771 2.69-1.516v0c0.673-0.455 1.248-0.826 1.723-1.114 0.475-0.287 1.067-0.585 1.775-0.893 0.714-0.305 1.376-0.488 1.987-0.55 0.617-0.059 1.3-0.009 2.05 0.148 0.754 0.152 1.486 0.447 2.196 0.885z" fill="#0f181f" data-fill-palette-color="primary"></path><path d="M235.023 159.347l4.134 1.579-5.381 14.087-22.664-8.657 5.327-13.947 4.135 1.579-3.338 8.737 5.145 1.965 2.98-7.801 4.106 1.568-2.98 7.802 5.145 1.965z" fill="#0f181f" data-fill-palette-color="primary"></path><path d="M2.479 126.577c0-5.201 4.216-9.417 9.417-9.417 5.201 0 9.417 4.216 9.417 9.417 0 5.201-4.216 9.417-9.417 9.417-5.201 0-9.417-4.216-9.417-9.417z" fill="#0f181f" data-fill-palette-color="primary"></path><path d="M225.255 126.577c0-5.201 4.216-9.417 9.417-9.417 5.201 0 9.417 4.216 9.417 9.417 0 5.201-4.216 9.417-9.417 9.417-5.201 0-9.417-4.216-9.417-9.417z" fill="#0f181f" data-fill-palette-color="primary"></path></g></svg></g></svg></g></svg></g></svg></g></svg></g><defs></defs></svg><rect width="247.2" height="247.2" fill="none" stroke="none" visibility="hidden"></rect></g></svg></g></svg>